# xmcd
#
# Track frame offsets:
# 150
# 4030
# 27692
# 51960
# 80665
# 110060
# 131504
# 156662
# 180034
# 214694
# 234962
# 279896
#
# Disc length: 4300 seconds
#
# Revision: 0
# Processed by: cddbd v1.5PL3 Copyright (c) Steve Scherf et al.
# Submitted via: Axialis_AX_CDPlayer 2.6
#
DISCID=9d10ca0c
DTITLE=Etta James - Burnin' Down The House
DYEAR=1900
DGENRE=
TTITLE0=Introduction
TTITLE1=Come to Mama
TTITLE2=I Just Wanna Make Love To You
TTITLE3=I'd Rather Go Blind
TTITLE4=All The Way Down
TTITLE5=At Last
TTITLE6=You Can Leave Your Hat On
TTITLE7=Somethings Got a Hold Of Me
TTITLE8=Your Good Thing is About To End
TTITLE9=Rock Me Baby
TTITLE10=Love and Happiness,Take Me To The River,MY Funny Valentine
TTITLE11=Sugar On The Floor
EXTD=
EXTT0=
EXTT1=
EXTT2=
EXTT3=
EXTT4=
EXTT5=
EXTT6=
EXTT7=
EXTT8=
EXTT9=
EXTT10=
EXTT11=
PLAYORDER=
